<svg width="2086.7000000000003" height="696.3000000000001" xmlns="http://www.w3.org/2000/svg" xmlns:xlink="http://www.w3.org/1999/xlink"><line x1="1048.25" y1="7.5" x2="80.25" y2="32.0" style="stroke:black; stroke-width:1px;" />
<line x1="80.25" y1="39.5" x2="49.0" y2="64.0" style="stroke:black; stroke-width:1px;" />
<line x1="80.25" y1="39.5" x2="111.5" y2="64.0" style="stroke:black; stroke-width:1px;" />
<line x1="1048.25" y1="7.5" x2="224.5" y2="32.0" style="stroke:black; stroke-width:1px;" />
<line x1="224.5" y1="39.5" x2="152.5" y2="64.0" style="stroke:black; stroke-width:1px;" />
<line x1="224.5" y1="39.5" x2="201.5" y2="64.0" style="stroke:black; stroke-width:1px;" />
<line x1="224.5" y1="39.5" x2="231.0" y2="64.0" style="stroke:black; stroke-width:1px;" />
<line x1="224.5" y1="39.5" x2="264.5" y2="64.0" style="stroke:black; stroke-width:1px;" />
<line x1="224.5" y1="39.5" x2="296.5" y2="64.0" style="stroke:black; stroke-width:1px;" />
<line x1="1048.25" y1="7.5" x2="429.75" y2="32.0" style="stroke:black; stroke-width:1px;" />
<line x1="429.75" y1="39.5" x2="351.0" y2="64.0" style="stroke:black; stroke-width:1px;" />
<line x1="429.75" y1="39.5" x2="413.5" y2="64.0" style="stroke:black; stroke-width:1px;" />
<line x1="429.75" y1="39.5" x2="443.0" y2="64.0" style="stroke:black; stroke-width:1px;" />
<line x1="429.75" y1="39.5" x2="476.5" y2="64.0" style="stroke:black; stroke-width:1px;" />
<line x1="429.75" y1="39.5" x2="508.5" y2="64.0" style="stroke:black; stroke-width:1px;" />
<line x1="1048.25" y1="7.5" x2="629.75" y2="32.0" style="stroke:black; stroke-width:1px;" />
<line x1="629.75" y1="39.5" x2="557.0" y2="64.0" style="stroke:black; stroke-width:1px;" />
<line x1="629.75" y1="39.5" x2="613.5" y2="64.0" style="stroke:black; stroke-width:1px;" />
<line x1="629.75" y1="39.5" x2="640.0" y2="64.0" style="stroke:black; stroke-width:1px;" />
<line x1="629.75" y1="39.5" x2="670.5" y2="64.0" style="stroke:black; stroke-width:1px;" />
<line x1="629.75" y1="39.5" x2="702.5" y2="64.0" style="stroke:black; stroke-width:1px;" />
<line x1="1048.25" y1="7.5" x2="852.5" y2="32.0" style="stroke:black; stroke-width:1px;" />
<line x1="852.5" y1="39.5" x2="743.5" y2="64.0" style="stroke:black; stroke-width:1px;" />
<line x1="852.5" y1="39.5" x2="824.0" y2="64.0" style="stroke:black; stroke-width:1px;" />
<line x1="852.5" y1="39.5" x2="912.5" y2="64.0" style="stroke:black; stroke-width:1px;" />
<line x1="912.5" y1="71.5" x2="897.0" y2="96.0" style="stroke:black; stroke-width:1px;" />
<line x1="912.5" y1="71.5" x2="912.5" y2="96.0" style="stroke:black; stroke-width:1px;" />
<line x1="912.5" y1="71.5" x2="928.0" y2="96.0" style="stroke:black; stroke-width:1px;" />
<line x1="852.5" y1="39.5" x2="961.5" y2="64.0" style="stroke:black; stroke-width:1px;" />
<line x1="1048.25" y1="7.5" x2="1131.75" y2="32.0" style="stroke:black; stroke-width:1px;" />
<line x1="1131.75" y1="39.5" x2="1016.0" y2="64.0" style="stroke:black; stroke-width:1px;" />
<line x1="1131.75" y1="39.5" x2="1110.0" y2="64.0" style="stroke:black; stroke-width:1px;" />
<line x1="1131.75" y1="39.5" x2="1198.5" y2="64.0" style="stroke:black; stroke-width:1px;" />
<line x1="1198.5" y1="71.5" x2="1183.0" y2="96.0" style="stroke:black; stroke-width:1px;" />
<line x1="1198.5" y1="71.5" x2="1198.5" y2="96.0" style="stroke:black; stroke-width:1px;" />
<line x1="1198.5" y1="71.5" x2="1214.0" y2="96.0" style="stroke:black; stroke-width:1px;" />
<line x1="1131.75" y1="39.5" x2="1247.5" y2="64.0" style="stroke:black; stroke-width:1px;" />
<line x1="1048.25" y1="7.5" x2="1408.75" y2="32.0" style="stroke:black; stroke-width:1px;" />
<line x1="1408.75" y1="39.5" x2="1296.0" y2="64.0" style="stroke:black; stroke-width:1px;" />
<line x1="1408.75" y1="39.5" x2="1384.0" y2="64.0" style="stroke:black; stroke-width:1px;" />
<line x1="1408.75" y1="39.5" x2="1472.5" y2="64.0" style="stroke:black; stroke-width:1px;" />
<line x1="1472.5" y1="71.5" x2="1457.0" y2="96.0" style="stroke:black; stroke-width:1px;" />
<line x1="1472.5" y1="71.5" x2="1472.5" y2="96.0" style="stroke:black; stroke-width:1px;" />
<line x1="1472.5" y1="71.5" x2="1488.0" y2="96.0" style="stroke:black; stroke-width:1px;" />
<line x1="1408.75" y1="39.5" x2="1521.5" y2="64.0" style="stroke:black; stroke-width:1px;" />
<line x1="1048.25" y1="7.5" x2="1682.75" y2="32.0" style="stroke:black; stroke-width:1px;" />
<line x1="1682.75" y1="39.5" x2="1570.0" y2="64.0" style="stroke:black; stroke-width:1px;" />
<line x1="1682.75" y1="39.5" x2="1658.0" y2="64.0" style="stroke:black; stroke-width:1px;" />
<line x1="1682.75" y1="39.5" x2="1746.5" y2="64.0" style="stroke:black; stroke-width:1px;" />
<line x1="1746.5" y1="71.5" x2="1731.0" y2="96.0" style="stroke:black; stroke-width:1px;" />
<line x1="1746.5" y1="71.5" x2="1746.5" y2="96.0" style="stroke:black; stroke-width:1px;" />
<line x1="1746.5" y1="71.5" x2="1762.0" y2="96.0" style="stroke:black; stroke-width:1px;" />
<line x1="1682.75" y1="39.5" x2="1795.5" y2="64.0" style="stroke:black; stroke-width:1px;" />
<line x1="1048.25" y1="7.5" x2="1956.75" y2="32.0" style="stroke:black; stroke-width:1px;" />
<line x1="1956.75" y1="39.5" x2="1844.0" y2="64.0" style="stroke:black; stroke-width:1px;" />
<line x1="1956.75" y1="39.5" x2="1932.0" y2="64.0" style="stroke:black; stroke-width:1px;" />
<line x1="1956.75" y1="39.5" x2="2020.5" y2="64.0" style="stroke:black; stroke-width:1px;" />
<line x1="2020.5" y1="71.5" x2="2005.0" y2="96.0" style="stroke:black; stroke-width:1px;" />
<line x1="2020.5" y1="71.5" x2="2020.5" y2="96.0" style="stroke:black; stroke-width:1px;" />
<line x1="2020.5" y1="71.5" x2="2036.0" y2="96.0" style="stroke:black; stroke-width:1px;" />
<line x1="1956.75" y1="39.5" x2="2069.5" y2="64.0" style="stroke:black; stroke-width:1px;" />
<line x1="1048.25" y1="7.5" x2="2016.25" y2="32.0" style="stroke:black; stroke-width:1px;" />
<rect x="778.0" y="64.0" width="92.0" height="15.0" style="fill:orange; stroke:rgb(0,0,0);" rx="1"/>
<text x="780" y="73" style="font-family:sans-serif;font-size:10px;">
está·enterrado·en
</text>
<rect x="1711.0" y="64.0" width="71.0" height="15.0" style="fill:orange; stroke:rgb(0,0,0);" rx="1"/>
<text x="1713" y="73" style="font-family:sans-serif;font-size:10px;">
coordenada:1
</text>
<rect x="909.0" y="96.0" width="7.0" height="15.0" style="fill:orange; stroke:rgb(0,0,0);" rx="1"/>
<text x="911" y="105" style="font-family:sans-serif;font-size:10px;">
,
</text>
<rect x="435.0" y="64.0" width="16.0" height="15.0" style="fill:orange; stroke:rgb(0,0,0);" rx="1"/>
<text x="437" y="73" style="font-family:sans-serif;font-size:10px;">
20
</text>
<rect x="1789.0" y="64.0" width="13.0" height="15.0" style="fill:orange; stroke:rgb(0,0,0);" rx="1"/>
<text x="1791" y="73" style="font-family:sans-serif;font-size:10px;">
\n
</text>
<rect x="1209.0" y="96.0" width="10.0" height="15.0" style="fill:orange; stroke:rgb(0,0,0);" rx="1"/>
<text x="1211" y="105" style="font-family:sans-serif;font-size:10px;">
3
</text>
<rect x="716.0" y="64.0" width="55.0" height="15.0" style="fill:orange; stroke:rgb(0,0,0);" rx="1"/>
<text x="718" y="73" style="font-family:sans-serif;font-size:10px;">
"El·Titanic"
</text>
<rect x="1535.0" y="64.0" width="70.0" height="15.0" style="fill:orange; stroke:rgb(0,0,0);" rx="1"/>
<text x="1537" y="73" style="font-family:sans-serif;font-size:10px;">
"La·Chatarra"
</text>
<rect x="877.0" y="64.0" width="71.0" height="15.0" style="fill:orange; stroke:rgb(0,0,0);" rx="1"/>
<text x="879" y="73" style="font-family:sans-serif;font-size:10px;">
coordenada:1
</text>
<rect x="399.0" y="64.0" width="29.0" height="15.0" style="fill:orange; stroke:rgb(0,0,0);" rx="1"/>
<text x="401" y="73" style="font-family:sans-serif;font-size:10px;">
te·da
</text>
<rect x="1515.0" y="64.0" width="13.0" height="15.0" style="fill:orange; stroke:rgb(0,0,0);" rx="1"/>
<text x="1517" y="73" style="font-family:sans-serif;font-size:10px;">
\n
</text>
<rect x="290.0" y="64.0" width="13.0" height="15.0" style="fill:orange; stroke:rgb(0,0,0);" rx="1"/>
<text x="292" y="73" style="font-family:sans-serif;font-size:10px;">
\n
</text>
<rect x="62.75" y="32.0" width="35.0" height="15.0" style="fill:orange; stroke:rgb(0,0,0);" rx="1"/>
<text x="64" y="41" style="font-family:sans-serif;font-size:10px;">
titulo:1
</text>
<rect x="0.0" y="64.0" width="98.0" height="15.0" style="fill:orange; stroke:rgb(0,0,0);" rx="1"/>
<text x="2" y="73" style="font-family:sans-serif;font-size:10px;">
"Mapa·de·pruebas"
</text>
<rect x="458.0" y="64.0" width="37.0" height="15.0" style="fill:orange; stroke:rgb(0,0,0);" rx="1"/>
<text x="460" y="73" style="font-family:sans-serif;font-size:10px;">
puntos
</text>
<rect x="696.0" y="64.0" width="13.0" height="15.0" style="fill:orange; stroke:rgb(0,0,0);" rx="1"/>
<text x="698" y="73" style="font-family:sans-serif;font-size:10px;">
\n
</text>
<rect x="310.0" y="64.0" width="82.0" height="15.0" style="fill:orange; stroke:rgb(0,0,0);" rx="1"/>
<text x="312" y="73" style="font-family:sans-serif;font-size:10px;">
"El·Santa·Maria"
</text>
<rect x="223.0" y="64.0" width="16.0" height="15.0" style="fill:orange; stroke:rgb(0,0,0);" rx="1"/>
<text x="225" y="73" style="font-family:sans-serif;font-size:10px;">
50
</text>
<rect x="1241.0" y="64.0" width="13.0" height="15.0" style="fill:orange; stroke:rgb(0,0,0);" rx="1"/>
<text x="1243" y="73" style="font-family:sans-serif;font-size:10px;">
\n
</text>
<rect x="105.0" y="64.0" width="13.0" height="15.0" style="fill:orange; stroke:rgb(0,0,0);" rx="1"/>
<text x="107" y="73" style="font-family:sans-serif;font-size:10px;">
\n
</text>
<rect x="1195.0" y="96.0" width="7.0" height="15.0" style="fill:orange; stroke:rgb(0,0,0);" rx="1"/>
<text x="1197" y="105" style="font-family:sans-serif;font-size:10px;">
,
</text>
<rect x="923.0" y="96.0" width="10.0" height="15.0" style="fill:orange; stroke:rgb(0,0,0);" rx="1"/>
<text x="925" y="105" style="font-family:sans-serif;font-size:10px;">
1
</text>
<rect x="1612.0" y="64.0" width="92.0" height="15.0" style="fill:orange; stroke:rgb(0,0,0);" rx="1"/>
<text x="1614" y="73" style="font-family:sans-serif;font-size:10px;">
está·enterrado·en
</text>
<rect x="2031.0" y="96.0" width="10.0" height="15.0" style="fill:orange; stroke:rgb(0,0,0);" rx="1"/>
<text x="2033" y="105" style="font-family:sans-serif;font-size:10px;">
1
</text>
<rect x="1998.25" y="32.0" width="36.0" height="15.0" style="fill:orange; stroke:rgb(0,0,0);" rx="1"/>
<text x="2000" y="41" style="font-family:sans-serif;font-size:10px;">
&lt;EOF&gt;
</text>
<rect x="1163.0" y="64.0" width="71.0" height="15.0" style="fill:orange; stroke:rgb(0,0,0);" rx="1"/>
<text x="1165" y="73" style="font-family:sans-serif;font-size:10px;">
coordenada:1
</text>
<rect x="1338.0" y="64.0" width="92.0" height="15.0" style="fill:orange; stroke:rgb(0,0,0);" rx="1"/>
<text x="1340" y="73" style="font-family:sans-serif;font-size:10px;">
está·enterrado·en
</text>
<rect x="1726.0" y="96.0" width="10.0" height="15.0" style="fill:orange; stroke:rgb(0,0,0);" rx="1"/>
<text x="1728" y="105" style="font-family:sans-serif;font-size:10px;">
1
</text>
<rect x="1374.25" y="32.0" width="69.0" height="15.0" style="fill:orange; stroke:rgb(0,0,0);" rx="1"/>
<text x="1376" y="41" style="font-family:sans-serif;font-size:10px;">
localizacion:1
</text>
<rect x="1886.0" y="64.0" width="92.0" height="15.0" style="fill:orange; stroke:rgb(0,0,0);" rx="1"/>
<text x="1888" y="73" style="font-family:sans-serif;font-size:10px;">
está·enterrado·en
</text>
<rect x="635.0" y="64.0" width="10.0" height="15.0" style="fill:orange; stroke:rgb(0,0,0);" rx="1"/>
<text x="637" y="73" style="font-family:sans-serif;font-size:10px;">
1
</text>
<rect x="1261.0" y="64.0" width="70.0" height="15.0" style="fill:orange; stroke:rgb(0,0,0);" rx="1"/>
<text x="1263" y="73" style="font-family:sans-serif;font-size:10px;">
"La·Chatarra"
</text>
<rect x="522.0" y="64.0" width="70.0" height="15.0" style="fill:orange; stroke:rgb(0,0,0);" rx="1"/>
<text x="524" y="73" style="font-family:sans-serif;font-size:10px;">
"La·Chatarra"
</text>
<rect x="1469.0" y="96.0" width="7.0" height="15.0" style="fill:orange; stroke:rgb(0,0,0);" rx="1"/>
<text x="1471" y="105" style="font-family:sans-serif;font-size:10px;">
,
</text>
<rect x="975.0" y="64.0" width="82.0" height="15.0" style="fill:orange; stroke:rgb(0,0,0);" rx="1"/>
<text x="977" y="73" style="font-family:sans-serif;font-size:10px;">
"El·Santa·Maria"
</text>
<rect x="1809.0" y="64.0" width="70.0" height="15.0" style="fill:orange; stroke:rgb(0,0,0);" rx="1"/>
<text x="1811" y="73" style="font-family:sans-serif;font-size:10px;">
"La·Chatarra"
</text>
<rect x="606.75" y="32.0" width="46.0" height="15.0" style="fill:orange; stroke:rgb(0,0,0);" rx="1"/>
<text x="608" y="41" style="font-family:sans-serif;font-size:10px;">
puntos:1
</text>
<rect x="1097.25" y="32.0" width="69.0" height="15.0" style="fill:orange; stroke:rgb(0,0,0);" rx="1"/>
<text x="1099" y="41" style="font-family:sans-serif;font-size:10px;">
localizacion:1
</text>
<rect x="1028.75" y="0.0" width="39.0" height="15.0" style="fill:orange; stroke:rgb(0,0,0);" rx="1"/>
<text x="1030" y="9" style="font-family:sans-serif;font-size:10px;">
mapa:1
</text>
<rect x="187.0" y="64.0" width="29.0" height="15.0" style="fill:orange; stroke:rgb(0,0,0);" rx="1"/>
<text x="189" y="73" style="font-family:sans-serif;font-size:10px;">
te·da
</text>
<rect x="1648.25" y="32.0" width="69.0" height="15.0" style="fill:orange; stroke:rgb(0,0,0);" rx="1"/>
<text x="1650" y="41" style="font-family:sans-serif;font-size:10px;">
localizacion:1
</text>
<rect x="502.0" y="64.0" width="13.0" height="15.0" style="fill:orange; stroke:rgb(0,0,0);" rx="1"/>
<text x="504" y="73" style="font-family:sans-serif;font-size:10px;">
\n
</text>
<rect x="1483.0" y="96.0" width="10.0" height="15.0" style="fill:orange; stroke:rgb(0,0,0);" rx="1"/>
<text x="1485" y="105" style="font-family:sans-serif;font-size:10px;">
2
</text>
<rect x="1922.25" y="32.0" width="69.0" height="15.0" style="fill:orange; stroke:rgb(0,0,0);" rx="1"/>
<text x="1924" y="41" style="font-family:sans-serif;font-size:10px;">
localizacion:1
</text>
<rect x="2000.0" y="96.0" width="10.0" height="15.0" style="fill:orange; stroke:rgb(0,0,0);" rx="1"/>
<text x="2002" y="105" style="font-family:sans-serif;font-size:10px;">
4
</text>
<rect x="2017.0" y="96.0" width="7.0" height="15.0" style="fill:orange; stroke:rgb(0,0,0);" rx="1"/>
<text x="2019" y="105" style="font-family:sans-serif;font-size:10px;">
,
</text>
<rect x="201.5" y="32.0" width="46.0" height="15.0" style="fill:orange; stroke:rgb(0,0,0);" rx="1"/>
<text x="203" y="41" style="font-family:sans-serif;font-size:10px;">
puntos:1
</text>
<rect x="1452.0" y="96.0" width="10.0" height="15.0" style="fill:orange; stroke:rgb(0,0,0);" rx="1"/>
<text x="1454" y="105" style="font-family:sans-serif;font-size:10px;">
3
</text>
<rect x="1437.0" y="64.0" width="71.0" height="15.0" style="fill:orange; stroke:rgb(0,0,0);" rx="1"/>
<text x="1439" y="73" style="font-family:sans-serif;font-size:10px;">
coordenada:1
</text>
<rect x="1743.0" y="96.0" width="7.0" height="15.0" style="fill:orange; stroke:rgb(0,0,0);" rx="1"/>
<text x="1745" y="105" style="font-family:sans-serif;font-size:10px;">
,
</text>
<rect x="818.0" y="32.0" width="69.0" height="15.0" style="fill:orange; stroke:rgb(0,0,0);" rx="1"/>
<text x="820" y="41" style="font-family:sans-serif;font-size:10px;">
localizacion:1
</text>
<rect x="246.0" y="64.0" width="37.0" height="15.0" style="fill:orange; stroke:rgb(0,0,0);" rx="1"/>
<text x="248" y="73" style="font-family:sans-serif;font-size:10px;">
puntos
</text>
<rect x="892.0" y="96.0" width="10.0" height="15.0" style="fill:orange; stroke:rgb(0,0,0);" rx="1"/>
<text x="894" y="105" style="font-family:sans-serif;font-size:10px;">
3
</text>
<rect x="406.75" y="32.0" width="46.0" height="15.0" style="fill:orange; stroke:rgb(0,0,0);" rx="1"/>
<text x="408" y="41" style="font-family:sans-serif;font-size:10px;">
puntos:1
</text>
<rect x="652.0" y="64.0" width="37.0" height="15.0" style="fill:orange; stroke:rgb(0,0,0);" rx="1"/>
<text x="654" y="73" style="font-family:sans-serif;font-size:10px;">
puntos
</text>
<rect x="955.0" y="64.0" width="13.0" height="15.0" style="fill:orange; stroke:rgb(0,0,0);" rx="1"/>
<text x="957" y="73" style="font-family:sans-serif;font-size:10px;">
\n
</text>
<rect x="1064.0" y="64.0" width="92.0" height="15.0" style="fill:orange; stroke:rgb(0,0,0);" rx="1"/>
<text x="1066" y="73" style="font-family:sans-serif;font-size:10px;">
está·enterrado·en
</text>
<rect x="1757.0" y="96.0" width="10.0" height="15.0" style="fill:orange; stroke:rgb(0,0,0);" rx="1"/>
<text x="1759" y="105" style="font-family:sans-serif;font-size:10px;">
4
</text>
<rect x="599.0" y="64.0" width="29.0" height="15.0" style="fill:orange; stroke:rgb(0,0,0);" rx="1"/>
<text x="601" y="73" style="font-family:sans-serif;font-size:10px;">
te·da
</text>
<rect x="2063.0" y="64.0" width="13.0" height="15.0" style="fill:orange; stroke:rgb(0,0,0);" rx="1"/>
<text x="2065" y="73" style="font-family:sans-serif;font-size:10px;">
\n
</text>
<rect x="1178.0" y="96.0" width="10.0" height="15.0" style="fill:orange; stroke:rgb(0,0,0);" rx="1"/>
<text x="1180" y="105" style="font-family:sans-serif;font-size:10px;">
2
</text>
<rect x="125.0" y="64.0" width="55.0" height="15.0" style="fill:orange; stroke:rgb(0,0,0);" rx="1"/>
<text x="127" y="73" style="font-family:sans-serif;font-size:10px;">
"El·Titanic"
</text>
<rect x="1985.0" y="64.0" width="71.0" height="15.0" style="fill:orange; stroke:rgb(0,0,0);" rx="1"/>
<text x="1987" y="73" style="font-family:sans-serif;font-size:10px;">
coordenada:1
</text>
</svg>